# xmcd
#
# Track frame offsets: 
#        182
#        20525
#        28040
#        45292
#        65020
#
# Disc length: 1082 seconds
#
# Revision: 5
# Processed by: cddbd v1.5.2PL0 Copyright (c) Steve Scherf et al.
# Submitted via: ExactAudioCopy v1.0b1
#
DISCID=38043805
DTITLE=Die Ärzte / Ein Schwein namens Männer
DYEAR=1998
DGENRE=Deutsch
TTITLE0=Männer sind Schweine (Single Version)
TTITLE1=Du bist nicht mein Freund
TTITLE2=Saufen
TTITLE3=Ein Lächeln (für jeden Tag deines Lebens)
TTITLE4=Männer sind Schweine (Jetzt noch kürzer!)
EXTD=Walt Disney Records 1997WD360592 YEAR: 1998
EXTT0=
EXTT1=
EXTT2=
EXTT3=
EXTT4=
PLAYORDER=
